<?xml version="1.0" encoding="utf-8"?>
<!-- Generator: Adobe Illustrator 24.3.0, SVG Export Plug-In . SVG Version: 6.00 Build 0)  -->
<svg version="1.1" id="Layer_1" xmlns="http://www.w3.org/2000/svg" xmlns:xlink="http://www.w3.org/1999/xlink" x="0px" y="0px"
	 viewBox="0 0 250 250" style="enable-background:new 0 0 250 250;" xml:space="preserve">
<style type="text/css">
	.sttrc0{fill:none;stroke:#0AA982;stroke-width:8;stroke-miterlimit:10;}
	.sttrc1{fill:#FFFFFF;}
</style>
<polyline class="sttrc0" points="118.6,89 105,89 105,29 165,29 165,89 151.9,89 "/>
<path d="M56,128.9l0.4,28.9c0.1,13.6,11.7,48.7,13,52.7c0.7,2.2,2.8,3.7,5.2,3.7l68.5-0.7c2.1,0,4-1.2,4.9-3.1
	c0.1-0.1,6.8-14.8,9.4-19.3c2.9-5.2,7-11.5,11.3-18.1c5.9-9.1,18.1-27.7,24.1-38.7c4.7-8.5,4.3-16.3-1-21.6c-3-3-7.1-4.6-11.3-4.5
	c0,0-0.1,0-0.1,0c-4.3,0.1-8.3,1.8-11.3,4.8c-0.1,0.1-0.2,0.2-0.3,0.3l-17,21.6L151.1,71c-0.1-8.9-7.3-16-16.2-16
	s-15.9,7.4-15.8,16.3l0.2,24.8c-1.6-0.6-3.4,0.2-5.2,0.2c-6.2,0.1-11.5,3.6-14.1,8.8c-2.1-1-4.5-1.6-7-1.6
	c-6.7,0.1-12.5,4.3-14.8,10.3c-1.9-0.8-4.1-1.3-6.3-1.3C63,112.7,55.9,120,56,128.9z"/>
<path class="sttrc1" d="M77.2,128.7l0.2,7.8c0,3,2.5,5.4,5.5,5.4s5.4-2.5,5.4-5.5L88,119.7c0-2.9,2.3-5.3,5.1-5.3
	c2.9,0,5.2,2.3,5.2,5.2l0.2,17.6c0,3,2.5,5.4,5.5,5.4s5.4-2.5,5.4-5.5l-0.2-24.6c0-2.9,1.7-6.9,4.1-8.3c2.1-1.3,6.2-2.7,6.2,0.2
	l0.2,17.6c0,3,2.5,5.4,5.5,5.4c3,0,5.4-2.5,5.4-5.5l-0.5-50.6c0-2.9,2.3-5.3,5.1-5.3s5.2,2.3,5.2,5.2l0.8,78.3c0,2.3,1.4,4.3,3.6,5
	s4.5,0.1,6-1.6l26.2-32.4c1-0.9,2.3-1.5,3.6-1.5c1.4,0,2.7,0.5,3.7,1.4c2.1,2,0.7,5.8-0.9,8.6c-5.9,10.6-18,29.1-23.8,38.1
	c-4.4,6.8-8.5,13.2-11.6,18.7c-2,3.6-6.1,12.3-8.3,17l-61.1,0.6c-3.9-12.3-11.1-36.6-11.2-45.6l-0.4-28.9c0-2.9,2.3-5.3,5.1-5.3
	C74.8,123.4,77.2,125.8,77.2,128.7L77.2,128.7z"/>
</svg>
